<?xml version="1.0" encoding="UTF-8"?>
<svg xmlns="http://www.w3.org/2000/svg" viewBox="0 0 576 512">
    <!-- Font Awesome Free 6.5.1 by @fontawesome - https://fontawesome.com License - https://fontawesome.com/license/free Copyright 2023 Fonticons, Inc. -->
    <path d="M290.7 57.4L57.4 290.7c-25 25-25 65.5 0 90.5l80 80c12 12 28.3 18.7 45.3 18.7H288h9.4H512c17.7 0 32-14.3 32-32s-14.3-32-32-32H387.9L518.6 285.3c25-25 25-65.5 0-90.5L381.3 57.4c-25-25-65.5-25-90.5 0zM297.4 416H288h-10.7H186.5c-4.2 0-8.3-1.7-11.3-4.7l-80-80c-6.2-6.2-6.2-16.4 0-22.6L258.7 145.4c6.2-6.2 16.4-6.2 22.6 0L418.7 282.7c6.2 6.2 6.2 16.4 0 22.6L297.4 416z"/>
</svg>
