<svg viewBox="0 0 24 24" fill="none" xmlns="http://www.w3.org/2000/svg">
  <!-- Newspaper icon -->
  <path
    d="M4 6H2V20C2 21.1 2.9 22 4 22H18C19.1 22 20 21.1 20 20V4C20 2.9 19.1 2 18 2H6C4.9 2 4 2.9 4 4V6Z"
    fill="currentColor"
    fill-opacity="0.1"
  />
  <path
    d="M18 2H6C4.9 2 4 2.9 4 4V6H2V20C2 21.1 2.9 22 4 22H18C19.1 22 20 21.1 20 20V4C20 2.9 19.1 2 18 2ZM18 20H4V8H6V4H18V20Z"
    fill="currentColor"
  />
  <rect x="8" y="6" width="8" height="2" fill="currentColor"/>
  <rect x="8" y="10" width="8" height="1" fill="currentColor" fill-opacity="0.7"/>
  <rect x="8" y="12" width="6" height="1" fill="currentColor" fill-opacity="0.7"/>
  <rect x="8" y="14" width="8" height="1" fill="currentColor" fill-opacity="0.7"/>
  <rect x="8" y="16" width="5" height="1" fill="currentColor" fill-opacity="0.7"/>
</svg>
